<svg width="100" height="100" viewBox="0 0 100 100" xmlns="http://www.w3.org/2000/svg"><title>4ex-thumbnail</title><defs><linearGradient x1="193.924%" y1="100%" x2="-41.034%" y2="100%" id="a"><stop stop-opacity="0" offset="0%"/><stop stop-color="#FFF" stop-opacity=".369" offset="100%"/></linearGradient><linearGradient x1="106.409%" y1="3.21%" x2="9.326%" y2="103.042%" id="b"><stop stop-color="#3E3E3E" offset="0%"/><stop stop-color="#B1B1B1" offset="47.994%"/><stop stop-color="#797979" offset="100%"/></linearGradient><linearGradient x1="565.973%" y1="16.735%" x2="566.309%" y2="103.959%" id="c"><stop stop-color="#3E3E3E" offset="0%"/><stop stop-color="#B1B1B1" offset="51.744%"/><stop stop-color="#797979" stop-opacity=".164" offset="100%"/></linearGradient><linearGradient x1="0%" y1="50%" x2="158.84%" y2="50%" id="d"><stop stop-color="#797979" offset="0%"/><stop stop-opacity="0" offset="100%"/></linearGradient></defs><g fill="none" fill-rule="evenodd"><path d="M65.737 33.69V2.01L12.552 66.395h34.434l18.75-32.706zM67 0l11.273 11.728v87.014L67 87.874V0z" fill="url(#a)"/><path d="M.055 67.663h1.483L56.573.978 55.737 0 .055 67.663z" fill="url(#b)" transform="translate(10)"/><path d="M57 87.25V0h-1.29v87.888H57v-.638z" fill="url(#c)" transform="translate(10)"/><path d="M2.222 67.657h14.881v-1.27H1.578v1.27h.644z" fill="url(#d)" transform="translate(10)"/></g></svg>