<svg width="100" height="100" viewBox="0 0 100 100" xmlns="http://www.w3.org/2000/svg"><title>thumbnail</title><g fill="none" fill-rule="evenodd"><path d="M5.3 67.944l7.618 31.868 49.855-.043-25.716-21.726-5.633-21.154L5.3 67.944z" fill="#2C2C47"/><path d="M94.39 67.25l-7.26 32.562H61.645L28.4 78.288l3.838-13.338-16.656-6.146L29.93 39.697l7.73 30.706L50.97 86.008 63.754 70.63l3.705-14.475L94.39 67.25z" fill="#41415D"/><path d="M70.4 41.075l14.835 19.363-18.257 4.44 5.017 12.8-17.328 11.935-3.726-3.61 12.75-15.14 6.182-23.92.528-5.868z" fill="#565571"/><g fill="#FFF"><path d="M46.855 45.535l-6.443 4.07-5.308-7.146 11.75 3.075zM52.154 45.535l6.443 4.07 5.308-7.146-11.75 3.075z"/></g><g><path d="M49.778 40.45V19.93l-22.49-2.572s-12.02 8.07-12.02 10.867c0 2.8 17.777 12.228 34.51 12.228z" fill="#41415D"/><path d="M49.778 31.013V5.475L38.92 1.015l-4.45.627-7.45 22.154 22.758 7.217z" fill="#2C2C47"/><path d="M49.778 35.484v-7.78l-21.786-7.8-2.796 6.18 24.582 9.4zM49.778 7.617l-10.87-6.58 9.62 2.517 1.25.327v3.737z" fill="#565571"/><g><path d="M49.778 40.45V19.93l22.303-2.572S84 25.426 84 28.223c0 2.8-17.63 12.228-34.222 12.228z" fill="#565571"/><path d="M49.778 31V5.46L60.635 1l4.45.628 7.45 22.154L49.78 31z" fill="#41415D"/><path d="M68.075 21.215c-3.128 2.662-7.656 2.79-7.656 2.79l1.885-8.763 10.15-.205s-1.252 3.517-4.38 6.178z" fill="#FFF"/><path d="M49.778 35.502v-7.78l21.786-7.8 2.796 6.18-24.582 9.4z" fill="#6A6985"/><path d="M47.62 4.978c0 .807 2.178 2.64 2.178 2.64l10.87-6.58-10.87 2.843s-2.178.66-2.178 1.098z" fill="#565571"/></g></g></g></svg>