<svg xmlns="http://www.w3.org/2000/svg" width="100" height="100" viewBox="0 0 100 100" xmlns:xlink="http://www.w3.org/1999/xlink">
  <defs>
    <linearGradient id="sr-b" x1="34.137%" x2="63.76%" y1="7.01%" y2="82.319%">
      <stop stop-color="#00D5FF" offset="0%"/>
      <stop stop-color="#B85194" offset="100%"/>
    </linearGradient>
    <linearGradient id="sr-c" x1="22.705%" x2="83.944%" y1="0%" y2="88.509%">
      <stop stop-color="#009AF2" offset="0%"/>
      <stop stop-color="#480F5A" offset="100%"/>
    </linearGradient>
    <circle id="sr-a" cx="17" cy="17" r="6"/>
    <mask id="sr-d" width="16" height="16" x="-2" y="-2">
      <rect width="16" height="16" x="9" y="9" fill="white"/>
      <use fill="black" xlink:href="#sr-a"/>
    </mask>
  </defs>
  <g fill="none" fill-rule="evenodd">
    <path fill="#41415D" d="M65.33436,20 L100,20 L100,80 L0,80 L0,20 L13,20 L13,17 L23,17 L23,20 L33.8373648,20 L38,11 L61,11 L65.33436,20 Z"/>
    <polygon fill="#2C2C47" points="72.146 20 100 20 100 80 13.565 80"/>
    <rect width="17" height="6" x="41" y="14" fill="#FFFFFF" rx="1"/>
    <circle cx="49.5" cy="50.5" r="24.5" fill="#37233E" stroke="#FFFFFF" stroke-width="3"/>
    <g transform="translate(32 33)">
      <circle cx="17" cy="17" r="16" fill="url(#sr-b)" stroke="#0F0C15" stroke-width="2"/>
      <ellipse cx="11.5" cy="11.5" fill="#FFFFFF" transform="rotate(-44 11.5 11.5)" rx="8.5" ry="6.5"/>
      <use fill="#14090F" xlink:href="#a"/>
      <use stroke="url(#c)" stroke-width="4" mask="url(#d)" xlink:href="#a"/>
      <ellipse cx="23" cy="23.5" fill="#FFFFFF" transform="rotate(-44 23 23.5)" rx="2" ry="1.5"/>
      <path fill="#CE3065" d="M31,17.3125 C31,25.0444865 24.7319865,31.3125 17,31.3125 C9.2680135,31.3125 3,25.0444865 3,17.3125 C3,16.8699027 3.02053834,16.4321023 3.06071395,16 C3.72238906,23.1165402 9.71061085,28.6875 17,28.6875 C24.2893892,28.6875 30.2776109,23.1165402 30.9392861,16 C30.9794617,16.4321023 31,16.8699027 31,17.3125 Z" opacity=".441"/>
    </g>
  </g>
</svg>
