<svg xmlns="http://www.w3.org/2000/svg" width="95" height="98" viewBox="0 0 95 98">
  <defs>
    <linearGradient id="vd-a" x1="50%" x2="50%" y1="-22.266%" y2="100%">
      <stop stop-color="#fff" offset="0%"/>
      <stop stop-color="#919191" offset="100%"/>
    </linearGradient>
    <linearGradient id="vd-b" x1="50%" x2="50%" y1="0%" y2="100%">
      <stop stop-color="#565571" offset="0%"/>
      <stop stop-color="#41415D" offset="100%"/>
    </linearGradient>
  </defs>
  <g fill="none" fill-rule="evenodd">
    <path fill="url(#vd-a)" d="M67,27.0729104 L67,11.9922002 C67,5.37344962 61.6268265,0 54.9986811,0 L39.0013189,0 C32.3738099,0 27,5.36909092 27,11.9922002 L27,29 L12.0077392,29 C5.37980616,29 0,34.3731735 0,41.0013189 L0,56.9986811 C0,63.6261901 5.37604795,69 12.0077392,69 L26.8580445,69 C37.9267286,65.3076477 46.5709793,57.8688331 53.1540118,47.8145986 C55.288048,44.5552952 57.0093498,41.2784406 58.3490333,38.155583 C58.4394701,37.9447709 58.5267932,37.7377978 58.6110341,37.5348227 L52.7258375,39.793938 C50.6601833,40.5868684 48.3422415,39.5535561 47.5521678,37.4953437 C46.7604832,35.4329348 47.785728,33.1211084 49.8588939,32.3252946 L63.8508479,26.9542866 C64.9147083,26.5459089 66.0454878,26.6219405 67,27.0729104 Z"/>
    <path fill="url(#vd-b)" d="M69.4152037,29 L82.9922608,29 C89.6239521,29 95,34.3738099 95,41.0013189 L95,56.9986811 C95,63.6268265 89.6201938,69 82.9922608,69 L67,69 L67,86.0077998 C67,92.6309091 61.6261901,98 54.9986811,98 L39.0013189,98 C32.3731735,98 27,92.6265504 27,86.0077998 L27,77.2599871 C31.5745521,75.9373054 35.8607714,74.0699632 39.860487,71.6984303 C48.0758851,66.8273122 54.6776671,60.0919229 59.8469897,52.1968409 C62.2272692,48.5614513 64.1492467,44.9110884 65.6577402,41.4103366 L67.575112,46.4052609 C68.3709258,48.4784269 70.6827522,49.5036716 72.7451612,48.711987 C74.8033735,47.9219133 75.8366858,45.6039716 75.0437554,43.5383173 L69.6727475,29.5463633 C69.5993376,29.3551241 69.5130278,29.1728018 69.4152037,29 Z"/>
  </g>
</svg>
