<?xml version="1.0" encoding="UTF-8"?>
<svg xmlns="http://www.w3.org/2000/svg" width="1225" height="1200" viewBox="0 0 1225 1200">
   <title>background</title>
   <style type="text/css" >
        <![CDATA[

          @keyframes colours {
              0% {
                  fill: #a24bcf;
              }
              33% {
                  fill: #4b79cf;
              }
              66% {
                  fill: #4bc5cf;
              }
              100% {
                  fill: #a24bcf;
              }
          }

          #bottom-stripe {
              fill: #a24bcf;
              animation: colours 60s ease infinite;
          }

          #top-stripe {
              fill: #a24bcf;
              animation: colours 60s ease infinite;
              animation-delay: 5s;
          }

        ]]>
    </style>
   <defs>
      <linearGradient x1="50%" y1="46.035%" x2="39.169%" y2="57.055%" id="a">
         <stop stop-opacity="0" offset="0%" />
         <stop offset="100%" />
      </linearGradient>
   </defs>
   <g fill="none" fill-rule="evenodd">
      <path d="M426 .023l-405 405v390l405 405h195l239.28 45.032L216 600.023l598.89-600H426z" fill="#373737" />
      <path d="M21 405.023v390l405 405h195l239.28 45.032L216 600.023l-195-195z" fill="#222" />
      <path d="M.026 405l195 195 41.24-35.078-195.676-200.9L.026 405z" fill-opacity=".3" fill="url(#a)" transform="translate(21)" />
      <g>
         <path d="M1006 .023l-405 405v390l405 405h195l239.28 45.032L796 600.023l598.89-600H1006z" fill="#a24bcf" id="top-stripe" />
         <path d="M601 405.023v390l405 405h195l239.28 45.032L796 600.023l-195-195z" fill="#a24bcf" id="bottom-stripe" />
         <path d="M.026 405l195 195 41.24-35.078-195.676-200.9L.026 405z" fill-opacity=".3" fill="url(#a)" transform="translate(601)" />
      </g>
   </g>
</svg>