<svg width="136" height="46" viewBox="0 0 136 46" xmlns="http://www.w3.org/2000/svg"><title>play-store</title><defs><linearGradient x1="55.9%" y1="91.98%" x2="40.361%" y2="-59.246%" id="a"><stop stop-color="#D7E69D" offset="0%"/><stop stop-color="#94C4AA" offset="44.56%"/><stop stop-color="#01A4B6" offset="100%"/></linearGradient><linearGradient x1="-1.183%" y1="-128.818%" x2="69.023%" y2="114.258%" id="b"><stop stop-color="#ED277B" offset="0%"/><stop stop-color="#EE2F7C" offset="1.92%"/><stop stop-color="#F7BD81" offset="70.39%"/><stop stop-color="#FEEB74" offset="100%"/></linearGradient><linearGradient x1="50.907%" y1="56.947%" x2="-.008%" y2="27.672%" id="c"><stop stop-color="#89CFBD" offset="0%"/><stop stop-color="#7DBEBB" offset="9.07%"/><stop stop-color="#457CAC" offset="53.96%"/><stop stop-color="#1C5AA2" offset="85.23%"/><stop stop-color="#084D9F" offset="100%"/></linearGradient><linearGradient x1="90.467%" y1="35.68%" x2="7.376%" y2="61.185%" id="d"><stop stop-color="#F04A2B" offset="0%"/><stop stop-color="#B54F6B" offset="47.04%"/><stop stop-color="#8B5191" offset="83.53%"/><stop stop-color="#7851A1" offset="100%"/></linearGradient></defs><g transform="translate(1 1)" fill="none" fill-rule="evenodd"><rect stroke="#DBDBDB" stroke-width="2" fill="#010101" width="134" height="44" rx="4"/><g fill="#FFF"><path d="M92.66 30.005l-.846.81c-.194.108-.388.236-.582.325-.585.27-1.18.338-1.71.338-.564 0-1.446-.037-2.347-.7-1.252-.897-1.798-2.44-1.798-3.784 0-2.783 2.226-4.147 4.04-4.147.636 0 1.287.162 1.817.503.88.592 1.11 1.364 1.236 1.776l-4.146 1.706-1.36.107c.44 2.28 1.96 3.605 3.634 3.605.837 0 1.46-.277 2.03-.564-.002 0 .113-.06.03.024h.002zm-2.503-4.538c.337-.125.512-.233.512-.482 0-.718-.798-1.544-1.75-1.544-.704 0-2.026.56-2.026 2.5 0 .3.035.624.053.947l3.21-1.42z"/><path d="M83.99 29.866c0 .697.123.806.703.86.302.037.603.053.902.09l-.652.394h-3.107c.407-.537.477-.59.477-.948v-.403l-.007-10.673h-1.373l1.32-.648h2.522c-.546.32-.71.517-.78 1.145l-.004 10.18z"/><path d="M79.172 23.728c.404.34 1.25 1.058 1.25 2.42 0 1.33-.737 1.957-1.48 2.55-.227.234-.493.488-.493.88 0 .396.264.61.456.773l.638.5c.773.666 1.48 1.278 1.48 2.516 0 1.688-1.604 3.39-4.638 3.39-2.556 0-3.792-1.237-3.792-2.565 0-.646.316-1.562 1.36-2.19 1.093-.68 2.574-.77 3.368-.823-.248-.326-.53-.667-.53-1.223 0-.305.09-.487.176-.7-.194.02-.388.04-.565.04-1.87 0-2.93-1.423-2.93-2.82 0-.827.372-1.742 1.13-2.406 1.006-.843 2.205-.99 3.156-.99h3.634l-1.128.65H79.17h.002zm-1.25 7.97c-.145-.02-.232-.02-.405-.02-.16 0-1.112.037-1.85.288-.39.146-1.518.574-1.518 1.85 0 1.272 1.216 2.19 3.1 2.19 1.693 0 2.592-.826 2.592-1.937 0-.92-.582-1.404-1.92-2.374v.002zm.507-3.412c.406-.415.44-.986.44-1.312 0-1.29-.755-3.3-2.22-3.3-.458 0-.954.232-1.236.593-.296.375-.386.86-.386 1.326 0 1.2.687 3.196 2.202 3.196.443 0 .918-.22 1.197-.505h.002zm-10.19 3.157c-2.805 0-4.304-2.22-4.304-4.233 0-2.35 1.885-4.362 4.567-4.362 2.592 0 4.216 2.065 4.216 4.235 0 2.118-1.607 4.36-4.48 4.36zm2.204-1.453c.427-.574.53-1.29.53-1.99 0-1.58-.74-4.595-2.928-4.595-.58 0-1.167.23-1.59.61-.69.627-.81 1.415-.81 2.19 0 1.773.86 4.7 3 4.7.688 0 1.39-.34 1.798-.915zm-11.59 1.453c-2.805 0-4.3-2.22-4.3-4.233 0-2.35 1.885-4.362 4.565-4.362 2.59 0 4.21 2.065 4.21 4.235 0 2.118-1.6 4.36-4.48 4.36h.003zm2.205-1.453c.42-.574.527-1.29.527-1.99 0-1.58-.742-4.595-2.927-4.595a2.42 2.42 0 0 0-1.585.61c-.69.627-.812 1.415-.812 2.19 0 1.773.864 4.7 2.998 4.7.69 0 1.394-.34 1.8-.915zm-7.628.83l-2.365.55c-.957.156-1.817.29-2.728.29-4.56 0-6.3-3.416-6.3-6.09 0-3.265 2.462-6.293 6.68-6.293.89 0 1.75.133 2.53.35 1.24.354 1.82.79 2.18 1.047l-1.373 1.33-.58.13.413-.67c-.557-.556-1.585-1.582-3.536-1.582-2.61 0-4.576 2.017-4.576 4.965 0 3.163 2.247 6.14 5.85 6.14 1.06 0 1.603-.216 2.097-.418v-2.715l-2.496.136 1.322-.722h3.502l-.43.42c-.114.1-.13.132-.162.268-.017.154-.033.64-.033.812v2.05l.002.002zM97.742 30.082v4.572h-.892V23.02h.892v1.324c.58-.856 1.643-1.534 2.875-1.534 2.212 0 3.703 1.708 3.703 4.41 0 2.686-1.49 4.43-3.703 4.43-1.163 0-2.206-.61-2.875-1.568zm5.62-2.86c0-2.038-1.043-3.592-2.895-3.592-1.15 0-2.247.92-2.725 1.72v3.724c.478.803 1.576 1.756 2.725 1.756 1.852 0 2.895-1.567 2.895-3.608zm2.176 4.22V19.808h.893v11.634h-.892zm10.902 2.46c.19.087.515.14.72.14.546 0 .927-.228 1.267-1.03l.652-1.5-3.516-8.492h.995l3.014 7.36 2.985-7.36h1.01l-4.288 10.273c-.444 1.06-1.144 1.568-2.106 1.568a3.49 3.49 0 0 1-.89-.12l.152-.837h.002zm-2.607-2.486c-.06-.293-.104-.55-.136-.765a5.184 5.184 0 0 1-.042-.655c-.306.458-.74.838-1.292 1.138-.554.3-1.08.45-1.803.45-.87 0-1.542-.218-2.025-.66-.48-.44-.72-1.04-.72-1.795 0-.756.35-1.368 1.046-1.835.7-.472 1.6-.705 2.715-.705h2.08V25.54c0-.604-.202-1.077-.605-1.42-.405-.345-.973-.518-1.71-.518-.672 0-1.217.158-1.632.467-.41.314-.62.705-.62 1.177h-.913l-.017-.045c-.033-.636.252-1.194.86-1.675.604-.483 1.4-.724 2.375-.724.97 0 1.758.24 2.352.713.592.47.89 1.152.89 2.042v4.153c-.012.576.066 1.15.23 1.7l-1.032.004v.002zm-3.165-.66c.758 0 1.302-.173 1.86-.515.55-.336.93-.777 1.125-1.313V27.31h-2.09c-.8 0-1.46.18-1.98.542-.52.36-.786.8-.786 1.31 0 .48.168.862.5 1.153.334.294.79.44 1.37.44z"/></g><path d="M48.05 11.01c0 1.176-.353 2.062-1.058 2.657-.653.55-1.58.824-2.783.824-.598 0-1.108-.024-1.535-.076v-6.43c.557-.09 1.157-.137 1.805-.137 1.146 0 2.01.25 2.59.747.653.563.98 1.368.98 2.416zm-1.105.028c0-.763-.202-1.348-.606-1.756-.406-.407-.996-.61-1.773-.61-.33 0-.61.02-.844.067v4.887c.13.02.365.03.708.03.803 0 1.42-.224 1.858-.67.435-.446.655-1.096.655-1.95h.002zm6.965 1c0 .724-.208 1.32-.622 1.784-.434.48-1.01.718-1.727.718-.69 0-1.24-.23-1.652-.69-.41-.458-.615-1.037-.615-1.735 0-.73.21-1.33.635-1.794.424-.463.994-.696 1.712-.696.69 0 1.247.23 1.668.688.4.447.6 1.023.6 1.727l.002-.003zm-1.088.033c0-.433-.094-.806-.28-1.117-.22-.376-.534-.564-.94-.564-.422 0-.742.187-.962.563-.188.31-.28.69-.28 1.138 0 .436.093.81.28 1.12.227.376.543.564.95.564.4 0 .715-.19.94-.574.195-.318.292-.694.292-1.13zm8.943-2.35l-1.475 4.713h-.96l-.61-2.047c-.153-.5-.28-1.01-.38-1.523h-.02a11.15 11.15 0 0 1-.378 1.523l-.65 2.047h-.97L54.935 9.72h1.077l.533 2.24c.13.53.235 1.035.32 1.513h.02c.077-.394.206-.896.388-1.503l.67-2.25h.853l.64 2.202c.156.537.282 1.054.38 1.552h.028c.07-.485.178-1.002.32-1.552l.572-2.202h1.03zm5.433 4.713H66.15v-2.7c0-.832-.316-1.248-.95-1.248a.946.946 0 0 0-.757.343c-.193.23-.29.5-.29.808v2.796h-1.05v-3.366c0-.45-.013-.9-.037-1.35h.92l.05.738h.03a1.5 1.5 0 0 1 .542-.57 1.77 1.77 0 0 1 .95-.264c.44 0 .806.142 1.097.427.362.35.543.87.543 1.562v2.822zm2.89 0H69.04V7.556h1.048v6.877zm6.17-2.396c0 .725-.207 1.32-.62 1.785-.435.48-1.01.718-1.728.718-.693 0-1.244-.23-1.654-.69-.41-.458-.615-1.037-.615-1.735 0-.73.213-1.33.637-1.794.424-.463.994-.696 1.71-.696.694 0 1.25.23 1.67.688.4.447.602 1.023.602 1.727l-.002-.003zm-1.088.034c0-.433-.094-.806-.28-1.117-.22-.376-.534-.564-.94-.564-.422 0-.742.187-.96.563-.19.31-.282.69-.282 1.138 0 .436.094.81.28 1.12.228.376.544.564.952.564.4 0 .713-.19.94-.574.194-.318.29-.694.29-1.13zm6.16 2.363h-.94l-.08-.543h-.028c-.322.433-.78.65-1.377.65-.445 0-.805-.143-1.076-.427a1.34 1.34 0 0 1-.37-.96c0-.576.24-1.015.722-1.32.482-.303 1.16-.452 2.033-.445V11.3c0-.62-.326-.93-.98-.93a2.19 2.19 0 0 0-1.228.348l-.213-.688c.438-.27.98-.407 1.617-.407 1.233 0 1.85.65 1.85 1.95v1.736c0 .47.024.844.07 1.122zm-1.088-1.62v-.727c-1.156-.02-1.734.297-1.734.95 0 .246.066.43.2.553.14.124.325.19.513.182.23 0 .447-.073.643-.218a.893.893 0 0 0 .38-.742zm7.043 1.62h-.93l-.05-.757h-.028c-.297.576-.803.864-1.514.864-.568 0-1.04-.223-1.416-.67-.375-.445-.562-1.024-.562-1.735 0-.763.203-1.38.61-1.853.396-.44.88-.66 1.456-.66.635 0 1.078.213 1.33.64h.02V7.556h1.05v5.607c0 .46.01.882.036 1.27zM86.2 12.445v-.786c.02-.368-.13-.724-.408-.966a1.03 1.03 0 0 0-.702-.258c-.39 0-.697.155-.922.466-.223.31-.336.708-.336 1.193 0 .466.107.844.322 1.135.227.31.533.466.916.466.344 0 .62-.13.828-.388.202-.24.3-.527.3-.863h.002zm10.048-.408c0 .725-.207 1.32-.62 1.785-.435.48-1.01.718-1.728.718-.69 0-1.242-.23-1.654-.69-.41-.458-.615-1.037-.615-1.735 0-.73.213-1.33.637-1.794.424-.463.994-.696 1.713-.696.69 0 1.247.23 1.667.688.4.447.6 1.023.6 1.727v-.003zm-1.086.034c0-.433-.094-.806-.28-1.117-.222-.376-.534-.564-.942-.564-.42 0-.74.187-.96.563-.19.31-.282.69-.282 1.138 0 .436.094.81.28 1.12.228.376.544.564.952.564.4 0 .715-.19.94-.574.194-.318.292-.694.292-1.13zm6.72 2.363h-1.046v-2.7c0-.832-.316-1.248-.95-1.248a.942.942 0 0 0-.757.343c-.196.23-.293.5-.293.808v2.796h-1.05v-3.366c0-.414-.01-.863-.036-1.35h.92l.05.738h.03a1.53 1.53 0 0 1 .542-.57c.285-.175.602-.264.95-.264.44 0 .806.142 1.097.427.362.35.542.87.542 1.562v2.822z" fill="#FFF"/><path d="M24.59 21.892l4.293-4.292-4.293 4.292-13.7-13.7 13.7 13.702-13.722 13.72 13.722-13.72 4.312 4.31h.002l-4.314-4.312z"/><path d="M28.882 17.6L12.156 8.403c-.473-.26-.912-.32-1.266-.21l13.7 13.7 4.293-4.293z" fill="url(#a)"/><path d="M28.904 26.205l5.71-3.14c1.157-.64 1.157-1.68 0-2.315l-5.73-3.15-4.293 4.292 4.315 4.313z" fill="url(#b)"/><path d="M10.89 8.192c-.508.16-.838.675-.838 1.454l.003 24.522c0 .77.32 1.277.813 1.446L24.59 21.89 10.89 8.193z" fill="url(#c)"/><path d="M10.868 35.615c.357.12.804.063 1.288-.2l16.747-9.21-4.312-4.312-13.72 13.722h-.002z" fill="url(#d)"/></g></svg>