<svg width="100" height="100" viewBox="0 0 100 100" xmlns="http://www.w3.org/2000/svg"><title>nj-baloons</title><defs><linearGradient x1="64.862%" y1="3.812%" x2="39.828%" y2="126.895%" id="a"><stop stop-color="#7255A4" offset="0%"/><stop stop-color="#28235A" offset="100%"/></linearGradient><radialGradient cx="37.889%" cy="32.836%" fx="37.889%" fy="32.836%" r="30.335%" id="b"><stop stop-color="#E456E9" offset="0%"/><stop stop-color="#D823D2" offset="100%"/></radialGradient><linearGradient x1="2.337%" y1="22.482%" x2="99.355%" y2="85.245%" id="c"><stop stop-color="#FFF" offset="0%"/><stop stop-color="#919191" offset="100%"/></linearGradient></defs><g fill="none" fill-rule="evenodd"><path d="M93.3 25.5v49L50 99 6.7 74.5v-49L50 1l43.3 24.5z" fill="url(#a)"/><path d="M84.15 30.677v38.646L50 88.645 15.85 69.323V30.677L50 11.355l34.15 19.322z" fill="#1E1E1E"/><path d="M50.176 88.58l.732-.43L42.99 49.4l-.1-.49-.98.2.1.49 8.166 38.98z" fill="#CFCFCF"/><path d="M29.302 43.32c6.268-4.287 11.226-17.476 7.426-27.918C32.54 3.896 21.275-2.568 11.566.966 1.858 4.5-2.617 16.692 1.57 28.198c3.682 10.113 15.313 16.92 22.907 16.66-.264 1.084-.275 2.168-.145 2.525.262.72 1.93.772 3.73.117 1.797-.654 3.042-1.768 2.78-2.487-.12-.33-.735-1.063-1.54-1.694z" fill="url(#b)" transform="rotate(7 20.332 161.457)"/><path d="M23.89 15.26c1.72.84 3.93-.153 4.936-2.217 1.006-2.063.428-4.416-1.29-5.254-1.72-.84-3.93.153-4.937 2.216-1.008 2.064-.43 4.416 1.29 5.255zM21.325 19.84c.677.33 1.546-.06 1.942-.87.395-.812.168-1.738-.508-2.067-.677-.33-1.547.06-1.942.872-.396.81-.17 1.736.507 2.066z" fill="#FFF"/><g transform="rotate(-8 200.758 -84.405)"><path d="M21.147 31.262c4.523-3.093 8.1-12.61 5.358-20.147C23.483 2.81 15.353-1.853 8.347.697 1.34 3.247-1.89 12.047 1.134 20.35c2.656 7.298 11.05 12.21 16.53 12.023-.19.782-.198 1.565-.104 1.822.19.52 1.393.557 2.69.085 1.298-.473 2.197-1.276 2.008-1.795-.087-.24-.53-.767-1.11-1.223z" fill="url(#c)"/><ellipse fill="#FFF" transform="rotate(19 5.34 8.65)" cx="5.341" cy="8.65" rx="2.5" ry="3"/><ellipse fill="#FFF" transform="rotate(19 3.314 13.878)" cx="3.314" cy="13.878" rx=".983" ry="1.18"/></g><path d="M29.302 43.32c6.268-4.287 11.226-17.476 7.426-27.918C32.54 3.896 21.275-2.568 11.566.966 1.858 4.5-2.617 16.692 1.57 28.198c3.682 10.113 15.313 16.92 22.907 16.66-.264 1.084-.275 2.168-.145 2.525.262.72 1.93.772 3.73.117 1.797-.654 3.042-1.768 2.78-2.487-.12-.33-.735-1.063-1.54-1.694z" fill="url(#c)" transform="rotate(39 35.84 87.746)"/><path d="M57.89 13.175c1.013 1.623 3.414 1.952 5.36.735 1.948-1.217 2.704-3.518 1.69-5.14-1.014-1.623-3.414-1.952-5.36-.736-1.948 1.217-2.704 3.52-1.69 5.14zM53.288 15.7c.398.638 1.342.768 2.108.29.766-.48 1.063-1.384.664-2.022-.398-.64-1.342-.768-2.108-.29-.766.48-1.063 1.384-.664 2.022z" fill="#FFF"/><g transform="rotate(50 7.738 100.578)"><path d="M21.147 31.262c4.523-3.093 8.1-12.61 5.358-20.147C23.483 2.81 15.353-1.853 8.347.697 1.34 3.247-1.89 12.047 1.134 20.35c2.656 7.298 11.05 12.21 16.53 12.023-.19.782-.198 1.565-.104 1.822.19.52 1.393.557 2.69.085 1.298-.473 2.197-1.276 2.008-1.795-.087-.24-.53-.767-1.11-1.223z" fill="url(#c)"/><ellipse fill="#FFF" transform="rotate(19 5.34 8.65)" cx="5.341" cy="8.65" rx="2.5" ry="3"/><ellipse fill="#FFF" transform="rotate(19 3.314 13.878)" cx="3.314" cy="13.878" rx=".983" ry="1.18"/></g><path d="M52.153 87.448l.64-.39-13.6-29.236-.814.494 13.773 29.132z" fill="#CFCFCF"/><path d="M44.353 85.486l.776.437 10.294-34.246-.913-.338-10.157 34.146zM53.717 86.534l1.097-.614 12.253-18.142-.754-.397-12.596 19.154z" fill="#CFCFCF"/></g></svg>